<?xml version="1.0" encoding="utf-8"?>
<!-- Generator: Adobe Illustrator 16.0.0, SVG Export Plug-In . SVG Version: 6.00 Build 0)  -->
<!DOCTYPE svg PUBLIC "-//W3C//DTD SVG 1.1//EN" "http://www.w3.org/Graphics/SVG/1.1/DTD/svg11.dtd">
<svg version="1.1" id="Layer_1" xmlns="http://www.w3.org/2000/svg" xmlns:xlink="http://www.w3.org/1999/xlink" x="0px" y="0px"
	 width="300px" height="38px" viewBox="0 0 300 38" enable-background="new 0 0 300 38" xml:space="preserve">
<g>
	<path fill="#00FFFF" d="M21.9,15.233h-3.467v2.6h2.6V18.7h-2.6v3.466H16.7v-7.799h5.2V15.233z"/>
	<path fill="#00FFFF" d="M28.833,22.166h-5.2V21.3h1.733v-4.333h-1.733V16.1H27.1v5.2h1.733V22.166z M27.1,15.233h-1.733V13.5H27.1
		V15.233z"/>
	<path fill="#00FFFF" d="M35.766,17.833h-2.6V18.7h-0.867v3.466h-1.733V16.1h1.733v1.733h0.867v-0.867h0.867V16.1h1.733V17.833z"/>
	<path fill="#00FFFF" d="M42.7,19.566h-3.467V21.3h2.6v0.866h-3.467V21.3H37.5v-4.333h0.867V16.1h3.467v0.867H42.7V19.566z
		 M40.966,18.7v-1.733h-1.733V18.7H40.966z"/>
	<path fill="#00FFFF" d="M49.633,18.7h-2.6v3.466h-1.733V18.7h-0.867v-0.867h0.867v-2.6h0.867v-0.867h3.467v0.867h-2.6v2.6h2.6V18.7
		z"/>
	<path fill="#00FFFF" d="M56.566,21.3h-0.867v0.866h-3.467V21.3h-0.867v-4.333h0.867V16.1h3.467v0.867h0.867V21.3z M54.833,21.3
		v-4.333h-1.733V21.3H54.833z"/>
	<path fill="#00FFFF" d="M63.5,22.166h-1.733v-1.732h-1.733v1.732h-1.733v-1.732h0.867v-0.867h0.867V18.7h-0.867v-0.867h-0.867V16.1
		h1.733v1.733h1.733V16.1H63.5v1.733h-0.867V18.7h-0.867v0.867h0.867v0.867H63.5V22.166z"/>
	<path fill="#00FFFF" d="M78.232,22.166h-1.733v-5.2h-0.867V21.3h-0.867v-4.333h-0.867v5.2h-1.733V16.1h5.2v0.867h0.866V22.166z"/>
	<path fill="#00FFFF" d="M84.299,21.3h-0.867v0.866h-3.467V21.3h-0.867v-4.333h0.867V16.1h3.467v0.867h0.867V21.3z M82.565,21.3
		v-4.333h-1.733V21.3H82.565z"/>
	<path fill="#00FFFF" d="M91.232,22.166h-4.333V21.3h-0.867v-4.333h0.867V16.1h2.6v-1.733h1.733V22.166z M89.499,21.3v-4.333h-1.733
		V21.3H89.499z"/>
	<path fill="#00FFFF" d="M98.166,22.166h-4.333V21.3h-0.867v-4.333h0.867V16.1h2.6v-1.733h1.733V22.166z M96.432,21.3v-4.333h-1.733
		V21.3H96.432z"/>
	<path fill="#00FFFF" d="M105.099,19.566h-3.467V21.3h2.6v0.866h-3.467V21.3h-0.867v-4.333h0.867V16.1h3.467v0.867h0.867V19.566z
		 M103.365,18.7v-1.733h-1.733V18.7H103.365z"/>
	<path fill="#00FFFF" d="M112.032,22.166h-4.333V21.3h-0.867v-4.333h0.867V16.1h2.6v-1.733h1.733V22.166z M110.298,21.3v-4.333
		h-1.733V21.3H110.298z"/>
	<path fill="#00FFFF" d="M125.898,21.3h-0.867v0.866h-4.333v-7.799h1.733V16.1h2.6v0.867h0.867V21.3z M124.165,21.3v-4.333h-1.733
		V21.3H124.165z"/>
	<path fill="#00FFFF" d="M132.832,21.3h-0.867v1.733h-0.867V23.9h-0.867v0.865h-3.467V23.9h2.6v-0.867h0.867v-0.867h-1.733V21.3
		h-0.867v-5.2h1.733v5.2h1.733v-5.2h1.733V21.3z"/>
	<path fill="#00FFFF" d="M146.697,22.166h-5.2v-7.799h5.2v0.867h-3.467v2.6h2.601V18.7h-2.601v2.6h3.467V22.166z"/>
	<path fill="#00FFFF" d="M153.631,22.166h-5.2v-7.799h1.733V21.3h3.467V22.166z"/>
	<path fill="#00FFFF" d="M160.564,17.833h-0.866V18.7h-0.867v3.466h-1.733V18.7h-0.866v-0.867h-0.867v-3.466h1.733v3.466h1.733
		v-3.466h1.733V17.833z"/>
	<path fill="#00FFFF" d="M175.298,22.166h-1.733v-5.2h-0.867v2.6h-0.866v-2.6h-0.867v5.2h-1.733v-7.799h1.733V16.1h0.867v0.867
		h0.866V16.1h0.867v-1.733h1.733V22.166z"/>
	<path fill="#00FFFF" d="M180.497,22.166h-2.601v-1.732h2.601V22.166z"/>
</g>
</svg>
